<svg width="218" height="210" viewBox="0 0 218 210" fill="none" xmlns="http://www.w3.org/2000/svg">
<mask id="mask0_1_10" style="mask-type:luminance" maskUnits="userSpaceOnUse" x="0" y="0" width="218" height="210">
<path d="M108.762 210C168.768 210 217.412 163.174 217.412 105.41C217.412 47.6468 168.768 0.820312 108.762 0.820312C48.7557 0.820312 0.111115 47.6468 0.111115 105.41C0.111115 163.174 48.7557 210 108.762 210Z" fill="white"/>
</mask>
<g mask="url(#mask0_1_10)">
<path d="M141.357 159.588L201.984 175.695C208.938 177.996 214.37 183.016 217.412 189.5V210H0.111115V189.5C2.93603 183.016 8.58587 177.996 15.5395 175.695L76.1666 159.588V128.42H141.357V159.588Z" fill="#E6C19C"/>
</g>
<mask id="mask1_1_10" style="mask-type:luminance" maskUnits="userSpaceOnUse" x="0" y="0" width="218" height="210">
<path d="M108.762 210C168.768 210 217.412 163.174 217.412 105.41C217.412 47.6468 168.768 0.820312 108.762 0.820312C48.7557 0.820312 0.111115 47.6468 0.111115 105.41C0.111115 163.174 48.7557 210 108.762 210Z" fill="white"/>
</mask>
<g mask="url(#mask1_1_10)">
<mask id="mask2_1_10" style="mask-type:luminance" maskUnits="userSpaceOnUse" x="0" y="128" width="218" height="82">
<path d="M141.357 159.588L201.984 175.695C208.938 177.996 214.37 183.016 217.412 189.5V210H0.111115V189.5C2.93603 183.016 8.58587 177.996 15.5395 175.695L76.1666 159.588V128.42H141.357V159.588Z" fill="white"/>
</mask>
<g mask="url(#mask2_1_10)">
<path d="M0.111115 122.145H217.412V210H0.111115V122.145ZM108.762 184.898C132.665 184.898 152.222 171.72 152.222 155.613C152.222 139.506 132.665 126.328 108.762 126.328C84.8587 126.328 65.3015 139.506 65.3015 155.613C65.3015 171.72 84.8587 184.898 108.762 184.898Z" fill="#E6A422"/>
</g>
<mask id="mask3_1_10" style="mask-type:luminance" maskUnits="userSpaceOnUse" x="0" y="128" width="218" height="82">
<path d="M141.357 159.588L201.984 175.695C208.938 177.996 214.37 183.016 217.412 189.5V210H0.111115V189.5C2.93603 183.016 8.58587 177.996 15.5395 175.695L76.1666 159.588V128.42H141.357V159.588Z" fill="white"/>
</mask>
<g mask="url(#mask3_1_10)">
<path d="M108.762 163.98C105.068 163.98 100.287 163.144 97.0275 161.679C93.3334 159.797 79.6434 148.92 74.8628 144.318C68.7783 138.042 65.7361 130.093 64.8669 116.497C63.9977 102.9 60.3036 54.3703 60.3036 43.2838C60.3036 27.5953 72.6898 3.12128 108.327 3.12128H108.544H108.762C144.617 3.33046 156.785 27.5953 156.785 43.2838C156.785 54.3703 153.091 102.9 152.222 116.497C151.353 130.093 148.311 137.833 142.226 144.318C137.663 149.129 123.973 159.797 120.061 161.679C117.237 163.144 112.456 163.98 108.762 163.98Z" fill="#D4B08C"/>
</g>
<mask id="mask4_1_10" style="mask-type:luminance" maskUnits="userSpaceOnUse" x="0" y="128" width="218" height="82">
<path d="M141.357 159.588L201.984 175.695C208.938 177.996 214.37 183.016 217.412 189.5V210H0.111115V189.5C2.93603 183.016 8.58587 177.996 15.5395 175.695L76.1666 159.588V128.42H141.357V159.588Z" fill="white"/>
</mask>
<g mask="url(#mask4_1_10)">
<path d="M108.762 122.145C81.1645 122.145 58.7825 137.624 58.7825 156.659C58.7825 175.695 81.1645 191.174 108.762 191.174C136.359 191.174 158.741 175.695 158.741 156.659C158.741 137.624 136.359 122.145 108.762 122.145ZM108.762 182.807C85.9451 182.807 67.4745 170.256 67.4745 154.567C67.4745 138.879 85.9451 126.328 108.762 126.328C131.578 126.328 150.049 138.879 150.049 154.567C150.049 170.256 131.578 182.807 108.762 182.807Z" fill="#D98C21"/>
</g>
</g>
<path d="M108.762 155.613C105.502 155.613 101.156 154.986 98.3313 153.731C94.8545 152.266 82.6856 144.108 78.5569 140.552C73.1244 135.741 70.2994 129.884 69.4302 119.634C68.561 109.385 65.3015 72.9873 65.3015 64.6201C65.3015 52.6969 76.3839 34.2891 108.762 34.2891C141.14 34.2891 152.222 52.6969 152.222 64.6201C152.222 72.9873 148.963 109.594 148.093 119.844C147.224 130.093 144.617 135.95 138.967 140.762C134.838 144.318 122.452 152.476 119.192 153.94C116.367 154.986 112.021 155.613 108.762 155.613Z" fill="#F2CEA5"/>
<path d="M123.973 129.466C119.844 133.649 112.673 135.741 106.371 134.486C100.504 133.231 96.1583 130.303 93.9853 125.491L123.973 129.466Z" fill="#D4B08C"/>
<path d="M123.973 129.466C119.844 133.649 112.673 135.741 106.371 134.486C100.504 133.231 96.1583 130.303 93.9853 125.491L123.973 129.466Z" stroke="#D4B08C" stroke-linecap="round" stroke-linejoin="round"/>
<mask id="mask5_1_10" style="mask-type:luminance" maskUnits="userSpaceOnUse" x="73" y="86" width="69" height="12">
<path d="M141.357 86.584H73.9936V97.043H141.357V86.584Z" fill="white"/>
</mask>
<g mask="url(#mask5_1_10)">
<path d="M128.319 99.1348C130.719 99.1348 132.665 97.2617 132.665 94.9512C132.665 92.6406 130.719 90.7676 128.319 90.7676C125.919 90.7676 123.973 92.6406 123.973 94.9512C123.973 97.2617 125.919 99.1348 128.319 99.1348Z" fill="#291F21"/>
</g>
<mask id="mask6_1_10" style="mask-type:luminance" maskUnits="userSpaceOnUse" x="73" y="86" width="69" height="12">
<path d="M141.357 86.584H73.9936V97.043H141.357V86.584Z" fill="white"/>
</mask>
<g mask="url(#mask6_1_10)">
<path d="M89.2047 99.1348C91.6049 99.1348 93.5507 97.2617 93.5507 94.9512C93.5507 92.6406 91.6049 90.7676 89.2047 90.7676C86.8045 90.7676 84.8587 92.6406 84.8587 94.9512C84.8587 97.2617 86.8045 99.1348 89.2047 99.1348Z" fill="#291F21"/>
</g>
<path d="M76.1666 88.6758C76.1666 88.6758 78.5569 82.4004 89.422 82.4004C96.8102 82.4004 101.156 85.5381 103.329 88.6758" stroke="#CC9872" stroke-width="2"/>
<path d="M141.574 88.6758C141.574 88.6758 139.184 82.4004 128.319 82.4004C117.888 82.4004 113.108 88.6758 113.108 92.8594C113.108 96.8338 113.108 111.686 113.108 111.686" stroke="#BB8660" stroke-width="2"/>
<path d="M149.614 101.645C149.614 101.645 151.353 88.4666 157.655 86.584C158.524 82.8187 160.914 71.9414 160.914 65.8752C160.914 59.809 160.262 53.9519 156.785 48.9316C152.874 43.493 144.617 40.3553 140.27 40.3553C135.273 43.2838 123.538 49.9775 119.844 53.9519C117.888 56.0437 120.713 57.7172 120.713 57.7172C120.713 57.7172 123.321 56.6713 124.407 56.4621C129.84 54.9978 141.792 53.9519 145.486 59.1814C150.049 65.4568 150.049 83.8646 150.049 86.584C150.049 89.0941 149.614 101.645 149.614 101.645Z" fill="#452228"/>
<path d="M59.869 86.584C66.1707 88.6758 67.9091 101.645 67.9091 101.645C67.9091 101.645 67.4745 89.0941 67.4745 86.584C67.4745 83.2371 67.9091 67.5486 74.8628 60.0182C82.6856 51.651 93.1161 48.9316 98.9832 52.6969C102.025 54.5795 112.239 64.2018 123.104 56.2529C129.623 51.4418 141.574 40.5645 141.574 40.5645C141.574 40.5645 135.273 21.9475 106.589 24.0393C94.4199 25.0852 80.9472 22.1566 80.9472 22.1566C80.9472 22.1566 80.7299 27.3861 82.9029 30.1055C64.8669 35.1258 58.9998 47.6766 57.2614 57.2988C56.8268 59.1814 56.6095 61.0641 56.6095 62.9467C56.6095 63.9926 56.6095 65.0385 56.6095 65.8752C56.6095 71.9414 58.9998 82.6096 59.869 86.584Z" fill="#6B363E"/>
</svg>
