<svg width="51" height="43" viewBox="0 0 51 43" fill="none" xmlns="http://www.w3.org/2000/svg">
<path d="M15.3 13.76C18.1166 13.76 20.4 12.2198 20.4 10.32C20.4 8.42014 18.1166 6.88 15.3 6.88V13.76Z" fill="black"/>
<path fill-rule="evenodd" clip-rule="evenodd" d="M15.3 1.72C8.25835 1.72 2.54999 5.57035 2.54999 10.32C2.54999 15.0696 8.25835 18.92 15.3 18.92C22.3416 18.92 28.05 15.0696 28.05 10.32C28.05 5.57035 22.3416 1.72 15.3 1.72ZM15.3 3.44V6.88C12.4833 6.88 10.2 8.42014 10.2 10.32C10.2 12.2198 12.4833 13.76 15.3 13.76V17.2C20.9333 17.2 25.5 14.1197 25.5 10.32C25.5 6.52028 20.9333 3.44 15.3 3.44Z" fill="black"/>
</svg>
