<svg width="31" height="39" viewBox="0 0 31 39" fill="none" xmlns="http://www.w3.org/2000/svg">
<path d="M26.375 5.5625C25.7266 5.56349 25.0863 5.71475 24.5 6.00547V4.90625C24.4947 3.81581 24.1202 2.76289 23.4434 1.9358C22.7666 1.10871 21.8316 0.56139 20.8058 0.391724C19.7799 0.222059 18.73 0.441113 17.8438 1.00971C16.9576 1.57831 16.293 2.45936 15.9687 3.49531C15.3267 3.12722 14.6065 2.93535 13.875 2.9375C12.7159 2.94182 11.6055 3.42719 10.786 4.28775C9.96637 5.14831 9.50412 6.31424 9.5 7.53125V19.9016L8.40625 17.9164C7.8323 16.8569 6.88102 16.0802 5.76166 15.7571C4.6423 15.434 3.44656 15.5911 2.4375 16.1937C1.42843 16.7964 0.688693 17.7952 0.381016 18.9706C0.0733396 20.1459 0.987467 24.4038 1.56141 25.4633C6.63954 36.6852 9.25 38.375 17 38.375C20.6455 38.3707 24.1404 36.8482 26.7181 34.1416C29.2959 31.4349 30.7459 27.7652 30.75 23.9375V10.1562C30.7459 8.93924 30.2836 7.77331 29.464 6.91275C28.6445 6.05219 27.5341 5.56682 26.375 5.5625ZM28.25 23.9375C28.2459 27.069 27.0593 30.0711 24.9504 32.2854C22.8415 34.4997 19.9824 35.7457 17 35.75C13.8437 35.75 11.6562 34.8477 9.65625 32.7641C7.65625 30.6805 5.79687 27.3828 3.04687 21.2961L3 21.1977C2.87366 20.9753 2.79187 20.7282 2.75963 20.4715C2.72739 20.2148 2.74538 19.9538 2.8125 19.7047C2.87453 19.4537 2.98394 19.2184 3.13425 19.0126C3.28456 18.8069 3.4727 18.635 3.6875 18.507C4.11788 18.2461 4.62929 18.1753 5.10937 18.3102C5.34629 18.3755 5.56813 18.4906 5.76149 18.6486C5.95484 18.8065 6.11571 19.0039 6.23437 19.2289L9.67187 25.4633C9.81201 25.7108 10.0249 25.9038 10.2785 26.0132C10.5321 26.1227 10.8127 26.1427 11.0781 26.0703C11.3437 25.9973 11.5785 25.8335 11.7455 25.6047C11.9124 25.3759 12.002 25.0953 12 24.807V7.53125C12 7.0091 12.1975 6.50834 12.5492 6.13913C12.9008 5.76992 13.3777 5.5625 13.875 5.5625C14.3723 5.5625 14.8492 5.76992 15.2008 6.13913C15.5525 6.50834 15.75 7.0091 15.75 7.53125V18.6875C15.75 19.0356 15.8817 19.3694 16.1161 19.6156C16.3505 19.8617 16.6685 20 17 20C17.3315 20 17.6495 19.8617 17.8839 19.6156C18.1183 19.3694 18.25 19.0356 18.25 18.6875V4.90625C18.25 4.3841 18.4475 3.88334 18.7992 3.51413C19.1508 3.14492 19.6277 2.9375 20.125 2.9375C20.6223 2.9375 21.0992 3.14492 21.4508 3.51413C21.8025 3.88334 22 4.3841 22 4.90625V18.6875C22 19.0356 22.1317 19.3694 22.3661 19.6156C22.6005 19.8617 22.9185 20 23.25 20C23.5815 20 23.8995 19.8617 24.1339 19.6156C24.3683 19.3694 24.5 19.0356 24.5 18.6875V10.1562C24.5 9.6341 24.6975 9.13334 25.0492 8.76413C25.4008 8.39492 25.8777 8.1875 26.375 8.1875C26.8723 8.1875 27.3492 8.39492 27.7008 8.76413C28.0525 9.13334 28.25 9.6341 28.25 10.1562V23.9375Z" fill="#E6A422"/>
</svg>
