<svg width="25" height="22" viewBox="0 0 25 22" fill="none" xmlns="http://www.w3.org/2000/svg">
<path d="M3.89297 6.10156H3.85938C2.07578 6.10156 0.78125 5.06069 0.78125 3.62656C0.78125 2.19038 2.10312 1.14744 3.92422 1.14744C5.71484 1.14744 6.99297 2.16219 7.03125 3.61488C7.03125 5.05931 5.71172 6.10156 3.89297 6.10156ZM3.92422 1.83494C2.53359 1.83494 1.5625 2.57194 1.5625 3.62656C1.5625 4.67913 2.50703 5.41475 3.85938 5.41475H3.89297C5.28125 5.41406 6.25 4.67775 6.25 3.62313C6.22109 2.53963 5.30859 1.83494 3.92422 1.83494Z" fill="white"/>
<path d="M5.85938 19.9375H1.95312C1.7375 19.9375 1.5625 19.7835 1.5625 19.5938V7.21875C1.5625 7.029 1.7375 6.875 1.95312 6.875H5.85938C6.075 6.875 6.25 7.029 6.25 7.21875V19.5938C6.25 19.7835 6.075 19.9375 5.85938 19.9375ZM2.34375 19.25H5.46875V7.5625H2.34375V19.25Z" fill="white"/>
<path d="M23.8281 19.9375H19.1406C18.925 19.9375 18.75 19.7835 18.75 19.5938V13.0625C18.75 11.9254 17.6984 11 16.4062 11C15.1141 11 14.0625 11.9254 14.0625 13.0625V19.5938C14.0625 19.7835 13.8875 19.9375 13.6719 19.9375H8.98438C8.76875 19.9375 8.59375 19.7835 8.59375 19.5938V7.21875C8.59375 7.029 8.76875 6.875 8.98438 6.875H13.6719C13.8875 6.875 14.0625 7.029 14.0625 7.21875V9.29087C14.0625 9.48062 13.8875 9.63462 13.6719 9.63462C13.4563 9.63462 13.2812 9.48062 13.2812 9.29087V7.5625H9.375V19.25H13.2812V13.0625C13.2812 11.5459 14.6828 10.3125 16.4062 10.3125C18.1297 10.3125 19.5312 11.5459 19.5312 13.0625V19.25H23.4375V12.0312C23.4375 9.56725 21.1594 7.5625 18.3594 7.5625C17.2781 7.5625 16.2328 7.84163 15.3352 8.36894C15.1562 8.47344 14.9133 8.43219 14.7938 8.27406C14.6742 8.11594 14.7219 7.90281 14.9023 7.79763C15.9281 7.194 17.1234 6.875 18.3594 6.875C21.5906 6.875 24.2188 9.18775 24.2188 12.0312V19.5938C24.2188 19.7835 24.0437 19.9375 23.8281 19.9375Z" fill="white"/>
</svg>
