<svg width="49" height="49" viewBox="0 0 49 49" fill="none" xmlns="http://www.w3.org/2000/svg">
<g clip-path="url(#clip0_81_84)">
<path d="M42.875 15.3125H6.125C5.71889 15.3125 5.32941 15.1512 5.04224 14.864C4.75508 14.5768 4.59375 14.1874 4.59375 13.7812C4.59375 13.3751 4.75508 12.9857 5.04224 12.6985C5.32941 12.4113 5.71889 12.25 6.125 12.25H42.875C43.2811 12.25 43.6706 12.4113 43.9578 12.6985C44.2449 12.9857 44.4062 13.3751 44.4062 13.7812C44.4062 14.1874 44.2449 14.5768 43.9578 14.864C43.6706 15.1512 43.2811 15.3125 42.875 15.3125Z" fill="#00F963"/>
<path d="M42.875 26.0312H6.125C5.71889 26.0312 5.32941 25.8699 5.04224 25.5828C4.75508 25.2956 4.59375 24.9061 4.59375 24.5C4.59375 24.0939 4.75508 23.7044 5.04224 23.4172C5.32941 23.1301 5.71889 22.9688 6.125 22.9688H42.875C43.2811 22.9688 43.6706 23.1301 43.9578 23.4172C44.2449 23.7044 44.4062 24.0939 44.4062 24.5C44.4062 24.9061 44.2449 25.2956 43.9578 25.5828C43.6706 25.8699 43.2811 26.0312 42.875 26.0312Z" fill="#00F963"/>
<path d="M42.875 36.75H6.125C5.71889 36.75 5.32941 36.5887 5.04224 36.3015C4.75508 36.0143 4.59375 35.6249 4.59375 35.2188C4.59375 34.8126 4.75508 34.4232 5.04224 34.136C5.32941 33.8488 5.71889 33.6875 6.125 33.6875H42.875C43.2811 33.6875 43.6706 33.8488 43.9578 34.136C44.2449 34.4232 44.4062 34.8126 44.4062 35.2188C44.4062 35.6249 44.2449 36.0143 43.9578 36.3015C43.6706 36.5887 43.2811 36.75 42.875 36.75Z" fill="#00F963"/>
</g>
<defs>
<clipPath id="clip0_81_84">
<rect width="49" height="49" fill="white"/>
</clipPath>
</defs>
</svg>
