<svg width="41" height="29" viewBox="0 0 41 29" fill="none" xmlns="http://www.w3.org/2000/svg">
<path d="M15.375 22.9583C6.83335 24.7708 6.83335 19.9375 3.41669 19.3333M27.3334 26.5833V21.9071C27.3974 21.3309 27.2874 20.7517 27.0105 20.2079C26.7336 19.6642 26.2963 19.1683 25.7275 18.7533C31.0917 18.3304 36.7292 16.8925 36.7292 10.295C36.7287 8.60796 35.8113 6.98562 34.1667 5.76376C34.9454 4.28778 34.8904 2.65634 34.0129 1.20834C34.0129 1.20834 31.9971 0.785423 27.3334 2.99667C23.4179 2.24608 19.2905 2.24608 15.375 2.99667C10.7113 0.785423 8.69544 1.20834 8.69544 1.20834C7.818 2.65634 7.76293 4.28778 8.54169 5.76376C6.88482 6.99468 5.96641 8.63169 5.97919 10.3313C5.97919 16.8804 11.6167 18.3183 16.9809 18.7896C16.4188 19.2004 15.9853 19.6903 15.7087 20.2274C15.432 20.7645 15.3183 21.3368 15.375 21.9071V26.5833" stroke="white" stroke-width="2" stroke-linecap="round" stroke-linejoin="round"/>
</svg>
